# xmcd
#
# Track frame offsets: 
#        150
#        14372
#        37807
#        56677
#
# Disc length: 1003 seconds
#
# Revision: 1
# Processed by: cddbd v1.5.2PL0 Copyright (c) Steve Scherf et al.
# Submitted via: ExactAudioCopy v0.99pb5
#
DISCID=2703e904
DTITLE=Elvis Costello - She EP
DYEAR=1999
DGENRE=Rock
TTITLE0=She
TTITLE1=This House Is Empty Now
TTITLE2=Sweetest Punch, The
TTITLE3=What's Her Name Today?
EXTD=YEAR: 1999
EXTT0=
EXTT1=
EXTT2=
EXTT3=
PLAYORDER=
